<svg width="108" height="19" viewBox="0 0 108 19" fill="none" xmlns="http://www.w3.org/2000/svg">
<path fill-rule="evenodd" clip-rule="evenodd" d="M72 13.0553L76.944 16L75.632 10.45L80 6.71579L74.248 6.23421L72 1L69.752 6.23421L64 6.71579L68.368 10.45L67.056 16L72 13.0553Z" fill="#D5CDC5"/>
<path fill-rule="evenodd" clip-rule="evenodd" d="M56 13.0553L60.944 16L59.632 10.45L64 6.71579L58.248 6.23421L56 1L53.752 6.23421L48 6.71579L52.368 10.45L51.056 16L56 13.0553Z" fill="#FF9017"/>
<path fill-rule="evenodd" clip-rule="evenodd" d="M40 13.0553L44.944 16L43.632 10.45L48 6.71579L42.248 6.23421L40 1L37.752 6.23421L32 6.71579L36.368 10.45L35.056 16L40 13.0553Z" fill="#FF9017"/>
<path fill-rule="evenodd" clip-rule="evenodd" d="M24 13.0553L28.944 16L27.632 10.45L32 6.71579L26.248 6.23421L24 1L21.752 6.23421L16 6.71579L20.368 10.45L19.056 16L24 13.0553Z" fill="#FF9017"/>
<path fill-rule="evenodd" clip-rule="evenodd" d="M8 13.0553L12.944 16L11.632 10.45L16 6.71579L10.248 6.23421L8 1L5.752 6.23421L0 6.71579L4.368 10.45L3.056 16L8 13.0553Z" fill="#FF9017"/>
<path d="M87.5682 15L92.7727 4.70455V4.61364H86.7727V3.36364H94.2273V4.68182L89.0455 15H87.5682ZM95.3452 15.0909C95.0649 15.0909 94.8243 14.9905 94.6236 14.7898C94.4228 14.589 94.3224 14.3485 94.3224 14.0682C94.3224 13.7879 94.4228 13.5473 94.6236 13.3466C94.8243 13.1458 95.0649 13.0455 95.3452 13.0455C95.6255 13.0455 95.866 13.1458 96.0668 13.3466C96.2675 13.5473 96.3679 13.7879 96.3679 14.0682C96.3679 14.2538 96.3205 14.4242 96.2259 14.5795C96.1349 14.7348 96.0118 14.8598 95.8565 14.9545C95.705 15.0455 95.5346 15.0909 95.3452 15.0909ZM102.153 15.1591C101.487 15.1591 100.886 15.0265 100.352 14.7614C99.8182 14.4962 99.3902 14.1326 99.0682 13.6705C98.7462 13.2083 98.5701 12.6818 98.5398 12.0909H99.9034C99.9564 12.6174 100.195 13.053 100.619 13.3977C101.047 13.7386 101.559 13.9091 102.153 13.9091C102.631 13.9091 103.055 13.7973 103.426 13.5739C103.801 13.3504 104.095 13.0436 104.307 12.6534C104.523 12.2595 104.631 11.8144 104.631 11.3182C104.631 10.8106 104.519 10.358 104.295 9.96023C104.076 9.55871 103.773 9.24242 103.386 9.01136C103 8.7803 102.559 8.66288 102.062 8.65909C101.706 8.6553 101.341 8.71023 100.966 8.82386C100.591 8.93371 100.282 9.07576 100.04 9.25L98.7216 9.09091L99.4261 3.36364H105.472V4.61364H100.608L100.199 8.04545H100.267C100.506 7.85606 100.805 7.69886 101.165 7.57386C101.525 7.44886 101.9 7.38636 102.29 7.38636C103.002 7.38636 103.636 7.55682 104.193 7.89773C104.754 8.23485 105.193 8.69697 105.511 9.28409C105.833 9.87121 105.994 10.5417 105.994 11.2955C105.994 12.0379 105.828 12.7008 105.494 13.2841C105.165 13.8636 104.71 14.322 104.131 14.6591C103.551 14.9924 102.892 15.1591 102.153 15.1591Z" fill="#FF9017"/>
</svg>
